<svg width="323" height="106" viewBox="0 0 323 106" fill="none" xmlns="http://www.w3.org/2000/svg">
<path d="M158.891 26.5447V5.38708H168.27C169.689 5.38708 170.924 5.64425 171.969 6.15858C173.014 6.67291 173.831 7.38762 174.42 8.30439C175.009 9.22117 175.303 10.3049 175.303 11.554C175.303 12.945 174.898 14.139 174.085 15.1359C173.273 16.1329 172.188 16.8442 170.827 17.2667L175.608 26.5463H172.563L168.086 17.6308H161.631V26.5463H158.891V26.5447ZM161.631 15.3614H168.086C169.445 15.3614 170.532 15.019 171.345 14.3344C172.156 13.6497 172.563 12.7229 172.563 11.554C172.563 10.3851 172.157 9.51841 171.345 8.83375C170.532 8.14909 169.447 7.80676 168.086 7.80676H161.631V15.363V15.3614Z" fill="#003751"/>
<path d="M184.408 26.8169C182.926 26.8169 181.581 26.4695 180.374 25.7749C179.166 25.0802 178.207 24.1333 177.497 22.9344C176.785 21.7354 176.43 20.3911 176.43 18.8999C176.43 17.4087 176.77 16.1295 177.45 14.9406C178.129 13.7516 179.048 12.8048 180.205 12.1001C181.363 11.3954 182.651 11.043 184.073 11.043C185.494 11.043 186.723 11.3954 187.818 12.1001C188.915 12.8048 189.786 13.7583 190.435 14.9556C191.085 16.1546 191.409 17.4888 191.409 18.96V19.7465H179.046C179.167 20.6533 179.482 21.4749 179.99 22.2096C180.496 22.9461 181.142 23.5238 181.923 23.948C182.704 24.3705 183.572 24.5826 184.527 24.5826C185.298 24.5826 186.045 24.4623 186.765 24.2202C187.485 23.978 188.099 23.6357 188.607 23.1932L190.25 24.8865C189.377 25.531 188.469 26.0153 187.525 26.3376C186.581 26.6599 185.54 26.8219 184.404 26.8219L184.408 26.8169ZM179.078 17.7193H188.822C188.679 16.8726 188.38 16.1128 187.924 15.4365C187.468 14.7619 186.904 14.2325 186.235 13.8501C185.565 13.4677 184.823 13.2757 184.012 13.2757C183.202 13.2757 182.419 13.4627 181.73 13.8351C181.04 14.2075 180.461 14.7318 179.993 15.4065C179.526 16.0811 179.221 16.8526 179.08 17.7193H179.078Z" fill="#003751"/>
<path d="M201.214 26.7868C199.772 26.7868 198.463 26.4345 197.286 25.7281C196.108 25.0234 195.174 24.0816 194.485 22.9026C193.795 21.7237 193.45 20.3894 193.45 18.8982C193.45 17.407 193.795 16.1028 194.485 14.9239C195.174 13.7449 196.108 12.8031 197.286 12.0984C198.463 11.3937 199.782 11.0414 201.244 11.0414C202.117 11.0414 202.958 11.1833 203.771 11.4638C204.582 11.7461 205.334 12.1485 206.024 12.6728V5.38876L208.643 4.84438V26.5463H206.055V25.005C204.716 26.194 203.101 26.7885 201.214 26.7885V26.7868ZM201.488 24.5191C202.422 24.5191 203.28 24.3438 204.06 23.9897C204.841 23.6374 205.495 23.1481 206.024 22.5236V15.2695C205.495 14.665 204.841 14.1874 204.06 13.8334C203.278 13.4811 202.42 13.3041 201.488 13.3041C200.474 13.3041 199.55 13.5462 198.717 14.0288C197.885 14.5131 197.23 15.1727 196.754 16.0093C196.276 16.8459 196.039 17.7978 196.039 18.8648C196.039 19.9319 196.278 20.8904 196.754 21.7354C197.23 22.582 197.886 23.2567 198.717 23.761C199.55 24.2653 200.474 24.5158 201.488 24.5158V24.5191Z" fill="#003751"/>
<path d="M219.332 26.8169C217.85 26.8169 216.506 26.4695 215.298 25.7749C214.09 25.0802 213.131 24.1333 212.421 22.9344C211.71 21.7354 211.355 20.3911 211.355 18.8999C211.355 17.4087 211.695 16.1295 212.374 14.9406C213.054 13.7516 213.972 12.8048 215.13 12.1001C216.287 11.3954 217.576 11.043 218.997 11.043C220.419 11.043 221.647 11.3954 222.742 12.1001C223.839 12.8048 224.71 13.7583 225.36 14.9556C226.009 16.1546 226.334 17.4888 226.334 18.96V19.7465H213.971C214.092 20.6533 214.406 21.4749 214.914 22.2096C215.421 22.9461 216.067 23.5238 216.847 23.948C217.628 24.3705 218.496 24.5826 219.452 24.5826C220.222 24.5826 220.969 24.4623 221.689 24.2202C222.409 23.978 223.023 23.6357 223.531 23.1932L225.175 24.8865C224.302 25.531 223.393 26.0153 222.449 26.3376C221.506 26.6599 220.464 26.8219 219.329 26.8219L219.332 26.8169ZM214.003 17.7193H223.746C223.603 16.8726 223.304 16.1128 222.848 15.4365C222.392 14.7619 221.829 14.2325 221.159 13.8501C220.49 13.4677 219.748 13.2757 218.937 13.2757C218.126 13.2757 217.344 13.4627 216.654 13.8351C215.964 14.2075 215.385 14.7318 214.918 15.4065C214.45 16.0811 214.146 16.8526 214.004 17.7193H214.003Z" fill="#003751"/>
<path d="M158.891 88.1171V67.716H169.725C171.076 67.716 172.273 68.0032 173.321 68.576C174.368 69.1487 175.196 69.9319 175.803 70.9222C176.408 71.9124 176.713 73.0496 176.713 74.3321C176.713 75.6146 176.408 76.6583 175.803 77.6402C175.196 78.6221 174.364 79.3936 173.308 79.9563C172.251 80.5207 171.057 80.8013 169.726 80.8013H163.943V88.1171H158.892H158.891ZM163.941 76.6633H169.138C169.881 76.6633 170.478 76.4495 170.929 76.022C171.378 75.5945 171.604 75.0418 171.604 74.3605C171.604 73.6792 171.378 73.093 170.929 72.6555C170.478 72.218 169.881 71.9993 169.138 71.9993H163.941V76.6616V76.6633Z" fill="#03B079"/>
<path d="M185.463 88.4093C183.876 88.4093 182.448 88.0553 181.176 87.3456C179.904 86.6359 178.895 85.679 178.151 84.475C177.408 83.271 177.036 81.9201 177.036 80.4239C177.036 78.9276 177.408 77.5733 178.151 76.3577C178.895 75.1436 179.903 74.1818 181.176 73.4721C182.448 72.7624 183.878 72.4084 185.463 72.4084C187.047 72.4084 188.477 72.7624 189.749 73.4721C191.021 74.1818 192.029 75.1436 192.774 76.3577C193.517 77.5717 193.889 78.9276 193.889 80.4239C193.889 81.9201 193.517 83.271 192.774 84.475C192.03 85.6807 191.023 86.6359 189.749 87.3456C188.477 88.0553 187.047 88.4093 185.463 88.4093ZM185.463 84.3281C186.186 84.3281 186.832 84.1527 187.401 83.8037C187.967 83.4547 188.418 82.9838 188.751 82.391C189.085 81.7982 189.251 81.1436 189.251 80.4239C189.251 79.7041 189.085 79.0211 188.751 78.4267C188.418 77.8338 187.962 77.3629 187.385 77.0139C186.808 76.6649 186.167 76.4896 185.463 76.4896C184.758 76.4896 184.117 76.6649 183.54 77.0139C182.963 77.3646 182.507 77.8355 182.174 78.4267C181.841 79.0195 181.674 79.6841 181.674 80.4239C181.674 81.1636 181.841 81.7982 182.174 82.391C182.507 82.9838 182.961 83.4547 183.54 83.8037C184.117 84.1544 184.758 84.3281 185.463 84.3281Z" fill="#03B079"/>
<path d="M203.519 88.3225C201.658 88.3225 200.255 87.91 199.306 87.0834C198.356 86.2585 197.881 85.0395 197.881 83.4263V76.6365H194.74V72.7023H197.881V68.7379L202.637 67.7176V72.7006H206.982V76.6349H202.637V82.4929C202.637 83.1725 202.788 83.6534 203.091 83.9357C203.394 84.2179 203.927 84.3581 204.691 84.3581C205.083 84.3581 205.44 84.3348 205.763 84.2847C206.086 84.2362 206.442 84.1544 206.834 84.0375V87.8549C206.404 87.9902 205.855 88.102 205.191 88.1905C204.525 88.2774 203.968 88.3225 203.517 88.3225H203.519Z" fill="#03B079"/>
<path d="M211.797 71.2728C211.072 71.2728 210.456 71.0207 209.948 70.5147C209.439 70.0104 209.185 69.3975 209.185 68.6795C209.185 67.9614 209.439 67.3486 209.948 66.8426C210.456 66.3383 211.074 66.0845 211.797 66.0845C212.52 66.0845 213.138 66.3366 213.648 66.8426C214.156 67.3486 214.411 67.9598 214.411 68.6795C214.411 69.3992 214.157 70.0104 213.648 70.5147C213.138 71.0207 212.522 71.2728 211.797 71.2728ZM209.42 88.1171V72.6989H214.176V88.1171H209.42Z" fill="#03B079"/>
<path d="M225.04 94.3542C223.787 94.3542 222.597 94.2373 221.472 94.0035C220.347 93.7697 219.324 93.439 218.403 93.0132L219.99 89.3411C220.831 89.7302 221.664 90.0208 222.485 90.2161C223.307 90.4099 224.128 90.5084 224.951 90.5084C226.066 90.5084 226.907 90.2846 227.476 89.8371C228.043 89.3895 228.327 88.7199 228.327 87.8265V86.9515C227.113 87.7681 225.774 88.1755 224.305 88.1755C222.836 88.1755 221.506 87.8249 220.311 87.1268C219.117 86.4272 218.168 85.4803 217.463 84.2847C216.758 83.089 216.407 81.7631 216.407 80.307C216.407 78.8508 216.763 77.5283 217.478 76.3427C218.193 75.157 219.162 74.2202 220.385 73.5305C221.608 72.8409 222.974 72.4952 224.482 72.4952C225.186 72.4952 225.871 72.582 226.537 72.7574C227.202 72.9327 227.819 73.1849 228.388 73.5155V72.6989H233.085V87.8833C233.085 89.9623 232.395 91.5604 231.016 92.6776C229.636 93.7947 227.644 94.3542 225.04 94.3542ZM225.128 84.2129C225.774 84.2129 226.366 84.116 226.904 83.9223C227.442 83.7286 227.917 83.4464 228.327 83.0773V77.6268C227.917 77.2761 227.442 77.0006 226.904 76.7969C226.366 76.5931 225.784 76.4913 225.158 76.4913C224.394 76.4913 223.704 76.6616 223.089 77.0006C222.471 77.3412 221.982 77.7971 221.62 78.3699C221.258 78.9427 221.077 79.5889 221.077 80.3087C221.077 81.0284 221.253 81.713 221.605 82.3058C221.957 82.8987 222.441 83.3646 223.058 83.7052C223.674 84.0459 224.366 84.2145 225.128 84.2145V84.2129Z" fill="#03B079"/>
<path d="M242.097 88.4093C240.882 88.4093 239.811 88.1471 238.882 87.6228C237.952 87.0985 237.223 86.3654 236.695 85.4219C236.167 84.4801 235.903 83.4063 235.903 82.2007V72.6989H240.659V81.5594C240.659 82.3944 240.918 83.0707 241.437 83.585C241.956 84.0993 242.637 84.3582 243.478 84.3582C244.084 84.3582 244.624 84.2513 245.093 84.0375C245.562 83.8238 245.954 83.5232 246.267 83.1341V72.7006H251.023V88.1188H246.267V87.0701C245.093 87.9635 243.703 88.411 242.099 88.411L242.097 88.4093Z" fill="#03B079"/>
<path d="M258.922 88.3793C257.825 88.3793 256.852 88.1755 255.999 87.7681C255.148 87.3606 254.482 86.7962 254.002 86.0781C253.523 85.3601 253.282 84.5335 253.282 83.6017C253.282 82.1255 253.844 80.9833 254.971 80.1767C256.097 79.3702 257.668 78.9677 259.684 78.9677C260.897 78.9677 262.071 79.113 263.206 79.4052V78.6471C263.206 77.8706 262.957 77.2928 262.458 76.9138C261.958 76.5347 261.22 76.346 260.24 76.346C259.633 76.346 258.953 76.4428 258.2 76.6382C257.446 76.8319 256.56 77.1442 255.543 77.57L253.841 74.1016C255.113 73.5389 256.341 73.1164 257.525 72.8342C258.71 72.552 259.899 72.4117 261.093 72.4117C263.247 72.4117 264.921 72.921 266.113 73.9413C267.308 74.9616 267.905 76.3944 267.905 78.2396V88.1188H263.208V87.1869C262.58 87.6144 261.921 87.92 261.226 88.1054C260.531 88.2891 259.763 88.3826 258.922 88.3826V88.3793ZM257.806 83.5132C257.806 83.9991 258.022 84.3782 258.452 84.6504C258.883 84.9226 259.48 85.0578 260.244 85.0578C260.811 85.0578 261.346 84.9994 261.844 84.8825C262.343 84.7656 262.798 84.5819 263.21 84.3281V82.3459C262.759 82.229 262.3 82.1422 261.83 82.0837C261.361 82.0253 260.88 81.9969 260.392 81.9969C259.569 81.9969 258.933 82.1272 258.484 82.391C258.033 82.6532 257.81 83.0272 257.81 83.5132H257.806Z" fill="#03B079"/>
<path d="M270.724 88.1171V72.6989H275.48V74.2436C275.988 73.6224 276.586 73.1515 277.272 72.8308C277.957 72.5102 278.72 72.3499 279.562 72.3499C280.403 72.37 281 72.4952 281.353 72.729V76.8386C281.04 76.6833 280.687 76.5664 280.297 76.4896C279.905 76.4128 279.504 76.3727 279.092 76.3727C278.349 76.3727 277.659 76.543 277.023 76.882C276.387 77.2227 275.872 77.7036 275.482 78.3248V88.1171H270.726H270.724Z" fill="#03B079"/>
<path d="M173.098 63.3275C170.549 63.3275 168.032 62.8666 165.546 61.9431C163.058 61.0214 160.841 59.7422 158.892 58.1057L163.208 52.5283C165.125 54.0746 166.893 55.1834 168.512 55.853C170.13 56.5227 171.853 56.8566 173.681 56.8566C174.879 56.8566 175.899 56.7381 176.738 56.4993C177.578 56.2605 178.222 55.9115 178.671 55.4506C179.12 54.9897 179.346 54.447 179.346 53.8224C179.346 52.9608 179.016 52.2911 178.357 51.8136C177.697 51.3376 176.573 50.9652 174.985 50.6981L168.063 49.4924C165.516 49.0465 163.552 48.0797 162.173 46.5918C160.793 45.1039 160.105 43.2153 160.105 40.9242C160.105 38.9019 160.622 37.1619 161.656 35.7024C162.691 34.2446 164.175 33.1291 166.108 32.3559C168.041 31.5828 170.34 31.1953 173.009 31.1953C175.347 31.1953 177.699 31.5894 180.066 32.3776C182.433 33.1658 184.487 34.2596 186.225 35.6573L182.133 41.3249C178.897 38.8552 175.675 37.6211 172.469 37.6211C171.419 37.6211 170.514 37.733 169.748 37.9551C168.985 38.1788 168.399 38.4911 167.995 38.8919C167.592 39.2927 167.388 39.7769 167.388 40.3414C167.388 41.1145 167.681 41.7107 168.265 42.1265C168.848 42.544 169.8 42.8713 171.119 43.1084L177.638 44.1788C180.665 44.6547 182.964 45.6516 184.539 47.1679C186.112 48.6858 186.899 50.648 186.899 53.0576C186.899 55.17 186.344 56.9919 185.235 58.5232C184.127 60.0562 182.539 61.2384 180.47 62.0717C178.402 62.905 175.944 63.3208 173.098 63.3208V63.3275Z" fill="#FFC022"/>
<path d="M198.272 62.8816V38.4276H187.976V31.6445H216.297V38.4276H206.002V62.8816H198.27H198.272Z" fill="#EA395B"/>
<path d="M219.716 62.8816V31.6445H244.531V38.2941H227.448V43.9166H238.731V50.3424H227.448V56.2321H244.71V62.8816H219.714H219.716Z" fill="#8B41D4"/>
<path d="M246.777 62.8816L259.679 31.6445H268.534L281.256 62.8816H272.895L270.018 55.3404H257.746L254.823 62.8816H246.777ZM260.084 49.2269H267.727L263.95 39.2309L260.084 49.2269Z" fill="#017DFF"/>
<path d="M283.55 62.8816V31.6445H293.306L301.083 46.3713L308.86 31.6445H318.616V62.8816H311.333V41.5954L300.994 60.649L290.655 41.5053V62.8799H283.552L283.55 62.8816Z" fill="#A5C618"/>
<path d="M121.376 26.6682C121.376 25.2872 121.396 23.2717 121.435 22.0894C121.514 19.6246 121.029 11.3135 111.457 7.89526C109.31 7.12878 106.982 6.7397 104.533 6.7397H60.2428C56.6192 6.7397 53.6886 6.70129 51.0188 6.62113C47.168 6.50257 39.9325 7.04362 34.7511 11.9815C31.1123 15.4482 29.2331 20.3928 29.1675 26.6983V54.2399C29.1675 54.821 29.1675 55.4522 29.1625 56.1002C29.1591 56.6679 29.1524 57.2507 29.1423 57.8235C29.1305 58.4831 29.1507 59.1527 29.2029 59.819C29.6167 65.0892 32.1351 70.2976 38.2267 70.9105C38.2469 70.9121 38.2654 70.9138 38.2855 70.9155C38.336 70.9188 38.4504 70.9255 38.6136 70.9255C39.4918 70.9255 41.8099 70.7385 43.5427 68.925C44.2156 68.2219 44.7018 67.3786 45.0046 66.4034C45.3074 65.4282 45.4235 64.3211 45.3529 63.0853C45.336 62.7747 45.3074 62.4575 45.2671 62.1318C44.9743 59.8123 45.0147 56.6546 46.8736 54.7776C47.9957 53.6454 49.7066 53.0743 51.971 53.066V64.984L52.0871 65.0157C53.0594 63.8568 54.449 63.0553 56.0253 62.8382V53.2162C58.8432 53.1411 63.7117 52.5416 66.8256 49.5441L72.4176 44.2973L78.1441 38.9737C79.3318 37.8699 80.0131 36.3303 80.0131 34.7505V27.9641C80.0131 26.3293 79.2914 24.7529 78.0331 23.639L63.488 10.7692H104.531C106.511 10.7692 108.378 11.0781 110.082 11.6859C116.889 14.1173 117.453 19.6831 117.378 21.9641C117.34 23.1882 117.318 25.2588 117.318 26.6716V63.6815C118.689 63.1121 120.045 62.5092 121.379 61.8613L121.374 61.5507V26.6716L121.376 26.6682ZM75.3347 26.6398C75.7367 26.9955 75.9571 27.4631 75.9571 27.9591V34.7455C75.9571 35.2231 75.7485 35.679 75.3717 36.0313L69.6384 41.3617L64.0313 46.6252C64.0313 46.6252 64.0179 46.6385 64.0112 46.6452C61.3986 49.1684 56.0539 49.3154 54.195 49.1601C49.7319 48.6808 46.2949 49.621 43.9818 51.9538C41.783 54.1714 40.8107 57.5062 41.1404 61.6342C41.1673 61.9632 41.1993 62.2938 41.2413 62.6328C41.3355 63.3792 41.3709 64.296 41.1623 65.0742C41.0546 65.48 40.8813 65.849 40.6155 66.1346C39.9191 66.8827 38.7633 66.8994 38.5766 66.8977C36.4249 66.6639 34.9479 65.4666 34.0613 63.239C33.8998 62.8332 33.7686 62.419 33.6609 62.0066C33.2673 60.4987 33.1966 59.0292 33.1949 58.1992C33.1949 58.0873 33.1949 57.9838 33.1966 57.897C33.2202 56.6345 33.2218 55.347 33.2218 54.2382V26.7183C33.2757 21.5567 34.7359 17.574 37.5588 14.8854C41.8251 10.8209 48.307 10.5671 50.8943 10.6456C52.8643 10.7057 54.9722 10.7424 57.3829 10.7575L75.3347 26.6415V26.6398Z" fill="#03B079"/>
<path d="M88.3237 53.2563H79.458C76.0934 53.2563 73.1729 55.2051 72.1922 58.104L69.0564 67.377C69.0059 67.5272 68.9403 67.6709 68.8629 67.8078C70.2155 67.9147 71.6454 67.9948 73.109 68.0449L76.0379 59.3848C76.4568 58.1458 77.8632 57.2808 79.458 57.2808H88.3237C89.7637 57.2808 91.0507 57.9754 91.6025 59.0508L94.0266 63.775C95.0125 63.1321 96.1917 62.7563 97.4602 62.7563C97.6671 62.7563 97.8707 62.7664 98.0709 62.7864L95.216 57.224C93.9795 54.8127 91.2727 53.2546 88.3237 53.2546V53.2563Z" fill="#03B079"/>
<path fill-rule="evenodd" clip-rule="evenodd" d="M45.9349 32.386H41.8016C41.3625 32.386 41.0042 32.8819 41.0042 33.4864V36.4772C41.0042 37.0834 41.3625 37.5777 41.8016 37.5777H45.9349C46.374 37.5777 46.7324 37.0834 46.7324 36.4772V33.4864C46.7324 32.8802 46.374 32.386 45.9349 32.386Z" fill="#03B079"/>
<path d="M11.6465 46.5066C11.6717 46.5066 11.6953 46.5033 11.7205 46.5033C11.6902 46.5033 11.6616 46.5066 11.6313 46.5066C11.6364 46.5066 11.6414 46.5066 11.6465 46.5066Z" fill="white"/>
<path d="M52.0887 65.0141L51.9727 64.9823V65.1593C52.0113 65.1109 52.05 65.0625 52.0887 65.0141Z" fill="#43DCAD"/>
<path d="M53.6802 63.7266C53.7912 63.6598 53.9056 63.5963 54.02 63.5362C54.3699 63.3542 54.74 63.2056 55.1253 63.092C55.418 63.0052 55.7191 62.94 56.027 62.8966V62.8365C54.449 63.0553 53.0594 63.8552 52.0887 65.0141L52.1022 65.0174C52.5648 64.4931 53.0998 64.0622 53.6802 63.7266Z" fill="#43DCAD"/>
<path d="M98.1129 62.8699L98.0708 62.7881C97.869 62.768 97.6654 62.758 97.4602 62.758C96.1917 62.758 95.0124 63.1338 94.0266 63.7767L94.0603 63.8435C95.036 63.2072 96.2001 62.8332 97.4551 62.8332C97.6772 62.8332 97.8976 62.8465 98.1129 62.8699Z" fill="#43DCAD"/>
<path d="M81.6349 88.3325L94.8728 74.6193C93.8163 74.1417 92.9163 73.3836 92.272 72.4367L78.8708 86.6325C79.9458 87.0216 80.8829 87.6962 81.5894 88.5629C81.5861 88.4844 81.5978 88.4076 81.6349 88.3341V88.3325Z" fill="#003751"/>
<path d="M45.0046 66.4017C46.8972 67.0179 48.7999 67.5874 50.7059 68.1084C50.8624 67.0046 51.3116 65.996 51.9727 65.1593V64.9823L48.1875 63.9453L45.3529 63.0853C45.4235 64.3194 45.3075 65.4282 45.0046 66.4034V66.4017Z" fill="#003751"/>
<path d="M70.747 94.2974C61.2438 93.2971 51.5925 90.4282 43.684 85.0829L54.237 74.6026C53.1974 74.1167 52.3142 73.3552 51.6833 72.4134C51.6833 72.4217 51.685 72.4301 51.6867 72.4367L40.8628 83.1708C29.9397 75.2021 21.1951 64.0489 16.4191 51.4211C20.3557 54.654 24.664 57.4294 29.2029 59.8157C29.1507 59.1477 29.1305 58.4797 29.1423 57.8201C29.1524 57.2457 29.1591 56.6646 29.1625 56.0968C28.8159 55.9064 28.4677 55.7177 28.1245 55.5224L24.9769 53.6588C22.1776 51.6248 19.1966 49.8013 16.8145 47.2681C15.7899 48.7559 14.1295 49.7779 12.2218 49.9499C19.3648 69.2122 33.9267 86.544 53.7038 93.6962C60.2109 96.0491 66.8475 97.3783 73.4253 97.739C72.1602 96.9558 71.1962 95.7385 70.7487 94.2957L70.747 94.2974Z" fill="#003751"/>
<path d="M91.5217 67.0129C90.98 67.1415 89.1884 67.4571 88.8334 67.5039C88.5323 67.5423 88.2194 67.579 87.8997 67.6141C87.1982 67.6909 86.453 67.7594 85.6741 67.8195C84.5991 67.903 83.4585 67.9698 82.2758 68.0182C81.9983 68.0299 81.719 68.0399 81.4381 68.0499C78.7363 68.1418 75.8613 68.1418 73.1073 68.0466C71.6438 67.9948 70.2138 67.9163 68.8612 67.8095C67.1234 67.6709 65.5152 67.4855 64.129 67.2484C63.4846 67.1382 63.0674 67.0113 62.7781 66.861C63.0203 67.5239 63.1532 68.2386 63.1532 68.9851C63.1532 69.1521 63.1448 69.319 63.1314 69.4827C63.1044 69.82 63.0506 70.149 62.9715 70.4696L68.6089 71.0023C69.5106 71.0875 70.4123 71.1526 71.3157 71.2077C72.9324 71.3062 74.5508 71.363 76.1708 71.358C79.3066 71.3496 82.439 71.2695 85.5546 71.0123C87.4926 70.852 89.4256 70.6249 91.3484 70.3009C91.2542 69.8701 91.2021 69.4243 91.2021 68.9667C91.2021 68.2837 91.3148 67.6274 91.52 67.0129H91.5217Z" fill="#003751"/>
<path d="M62.4348 73.5071L61.804 72.8342C61.6139 73.073 61.4053 73.2984 61.1815 73.5071C60.5692 74.0782 59.8407 74.5308 59.0349 74.8213C59.903 75.5995 61.7754 77.5282 62.1623 77.9207C65.5134 81.3356 68.5516 85.0745 72.0172 88.3809C72.7321 87.571 73.654 86.9465 74.7038 86.5908L62.4348 73.5071Z" fill="#003751"/>
<path d="M136.747 46.9742C136.632 47.2246 136.392 47.5553 135.951 48.0713C133.666 50.7448 130.164 53.3348 126.221 55.6509C126.01 55.7745 125.8 55.8981 125.588 56.0183C124.338 56.7347 123.048 57.4194 121.742 58.074C121.621 58.1357 121.498 58.1925 121.376 58.2543L117.32 60.1446C116.199 60.6322 115.089 61.0898 114 61.5156C113.28 61.7978 112.567 62.0684 111.872 62.3205C111.299 62.5276 110.735 62.7246 110.183 62.91C109.081 63.2807 108.028 63.608 107.044 63.8852C106.526 64.0305 103.974 64.7201 102.886 64.9439C102.87 64.9473 102.852 64.9506 102.838 64.9539C102.611 65.0007 102.455 65.0241 102.404 65.014C102.364 65.0057 102.273 64.9489 102.155 64.8654C102.919 65.7254 103.446 66.7975 103.636 67.9798C107.875 67.0446 112.064 65.7738 116.12 64.1674C116.522 64.0088 116.921 63.8418 117.32 63.6748L121.381 61.8546C121.958 61.5741 122.533 61.2868 123.102 60.9929C128.174 58.3745 132.933 55.1834 137.184 51.4211C133.485 61.2718 127.824 70.6199 119.984 77.7336C116.568 80.8346 116.795 80.8346 113.191 83.3996L102.194 73.0195C101.498 73.8194 100.601 74.4423 99.5799 74.8063L109.537 84.475C109.796 84.7272 110.045 84.991 110.281 85.2649C101.906 90.0324 92.4335 93.454 82.7536 94.1287C82.3229 95.6683 81.3102 96.9675 79.9644 97.7774C98.9187 96.9642 116.855 88.092 129.166 72.42C134.492 65.6403 138.628 57.9855 141.565 49.8931C139.528 49.7312 137.768 48.604 136.748 46.9691L136.747 46.9742Z" fill="#003751"/>
<path d="M11.6279 38.765C7.80073 38.765 4.6969 41.8459 4.6969 45.6449C4.6969 49.4439 7.80073 52.5249 11.6279 52.5249C15.4552 52.5249 18.559 49.4439 18.559 45.6449C18.559 41.8459 15.4552 38.765 11.6279 38.765ZM11.6279 48.8227C9.85985 48.8227 8.42654 47.4 8.42654 45.6449C8.42654 43.8899 9.85985 42.4671 11.6279 42.4671C13.396 42.4671 14.8293 43.8899 14.8293 45.6449C14.8293 47.4 13.396 48.8227 11.6279 48.8227Z" fill="#FFC022"/>
<path d="M56.4661 61.7828C52.6389 61.7828 49.535 64.8638 49.535 68.6628C49.535 72.4618 52.6389 75.5428 56.4661 75.5428C60.2933 75.5428 63.3971 72.4618 63.3971 68.6628C63.3971 64.8638 60.2933 61.7828 56.4661 61.7828ZM56.4661 71.8406C54.698 71.8406 53.2647 70.4178 53.2647 68.6628C53.2647 66.9077 54.698 65.485 56.4661 65.485C58.2342 65.485 59.6675 66.9077 59.6675 68.6628C59.6675 70.4178 58.2342 71.8406 56.4661 71.8406Z" fill="#EA395B"/>
<path d="M77.1498 85.9261C73.3226 85.9261 70.2188 89.0071 70.2188 92.8061C70.2188 96.6051 73.3226 99.6861 77.1498 99.6861C80.977 99.6861 84.0808 96.6051 84.0808 92.8061C84.0808 89.0071 80.977 85.9261 77.1498 85.9261ZM77.1498 95.9823C75.3817 95.9823 73.9484 94.5595 73.9484 92.8045C73.9484 91.0494 75.3817 89.6266 77.1498 89.6266C78.9179 89.6266 80.3512 91.0494 80.3512 92.8045C80.3512 94.5595 78.9179 95.9823 77.1498 95.9823Z" fill="#8B41D4"/>
<path d="M141.563 38.765C137.736 38.765 134.632 41.8459 134.632 45.6449C134.632 49.4439 137.736 52.5249 141.563 52.5249C145.39 52.5249 148.494 49.4439 148.494 45.6449C148.494 41.8459 145.39 38.765 141.563 38.765ZM141.563 48.8227C139.795 48.8227 138.362 47.4 138.362 45.6449C138.362 43.8899 139.795 42.4671 141.563 42.4671C143.331 42.4671 144.765 43.8899 144.765 45.6449C144.765 47.4 143.331 48.8227 141.563 48.8227Z" fill="#A5C618"/>
<path d="M97.302 61.7828C93.4748 61.7828 90.371 64.8638 90.371 68.6628C90.371 72.4618 93.4748 75.5428 97.302 75.5428C101.129 75.5428 104.233 72.4618 104.233 68.6628C104.233 64.8638 101.129 61.7828 97.302 61.7828ZM97.302 71.8406C95.5339 71.8406 94.1006 70.4178 94.1006 68.6628C94.1006 66.9077 95.5339 65.485 97.302 65.485C99.0701 65.485 100.503 66.9077 100.503 68.6628C100.503 70.4178 99.0701 71.8406 97.302 71.8406Z" fill="#017DFF"/>
</svg>
